<svg xmlns="http://www.w3.org/2000/svg" viewBox="0 0 800 800" width="800" height="800">
  <defs>
    <linearGradient id="duskSky" x1="0%" y1="0%" x2="0%" y2="100%">
      <stop offset="0%" stop-color="#ffecd2" />
      <stop offset="45%" stop-color="#fcb69f" />
      <stop offset="100%" stop-color="#f6ad8a" />
    </linearGradient>
    <radialGradient id="sunGlow" cx="70%" cy="10%" r="35%">
      <stop offset="0%" stop-color="#ffeab6" />
      <stop offset="100%" stop-color="#ff9f7f" stop-opacity="0" />
    </radialGradient>
    <linearGradient id="street" x1="0%" y1="0%" x2="100%" y2="0%">
      <stop offset="0%" stop-color="#5f4b8b" />
      <stop offset="100%" stop-color="#28313b" />
    </linearGradient>
    <linearGradient id="buildingLight" x1="0%" y1="0%" x2="0%" y2="100%">
      <stop offset="0%" stop-color="#f6d8ac" />
      <stop offset="100%" stop-color="#f1b47b" />
    </linearGradient>
    <linearGradient id="awning" x1="0%" y1="0%" x2="100%" y2="0%">
      <stop offset="0%" stop-color="#ff6f61" />
      <stop offset="100%" stop-color="#f76c6c" />
    </linearGradient>
    <pattern id="windowLights" width="40" height="40" patternUnits="userSpaceOnUse">
      <rect x="0" y="0" width="18" height="26" rx="4" fill="#fdf1d6" opacity="0.85" />
      <rect x="22" y="10" width="14" height="20" rx="3" fill="#fef6e4" opacity="0.7" />
    </pattern>
    <pattern id="lanterns" width="80" height="80" patternUnits="userSpaceOnUse">
      <circle cx="10" cy="40" r="8" fill="#ffce8a" opacity="0.8" />
      <circle cx="50" cy="20" r="6" fill="#ffd79d" opacity="0.7" />
      <circle cx="70" cy="50" r="7" fill="#ffb86c" opacity="0.6" />
    </pattern>
    <filter id="softGlow">
      <feGaussianBlur stdDeviation="8" result="blur" />
      <feMerge>
        <feMergeNode in="blur" />
        <feMergeNode in="SourceGraphic" />
      </feMerge>
    </filter>
  </defs>
  <rect width="800" height="800" fill="url(#duskSky)" />
  <rect width="800" height="800" fill="url(#sunGlow)" />
  <rect y="560" width="800" height="240" fill="url(#street)" opacity="0.85" />
  <g opacity="0.4">
    <rect x="40" y="320" width="200" height="200" fill="url(#buildingLight)" />
    <rect x="300" y="280" width="220" height="240" fill="url(#buildingLight)" />
    <rect x="560" y="340" width="180" height="180" fill="url(#buildingLight)" />
  </g>
  <g opacity="0.55">
    <rect x="80" y="360" width="160" height="140" fill="url(#windowLights)" />
    <rect x="340" y="320" width="160" height="160" fill="url(#windowLights)" />
    <rect x="580" y="360" width="120" height="140" fill="url(#windowLights)" />
  </g>
  <g opacity="0.6">
    <rect x="40" y="420" width="200" height="30" fill="url(#awning)" />
    <rect x="300" y="380" width="220" height="35" fill="url(#awning)" />
    <rect x="560" y="430" width="180" height="28" fill="url(#awning)" />
  </g>
  <g opacity="0.35" filter="url(#softGlow)">
    <circle cx="100" cy="420" r="18" fill="#ffe0a3" />
    <circle cx="360" cy="390" r="16" fill="#ffd296" />
    <circle cx="620" cy="430" r="18" fill="#ffc27a" />
  </g>
  <rect width="800" height="800" fill="url(#lanterns)" opacity="0.25" />
</svg>
